<?xml version="1.0" encoding="UTF-8"?>
<svg width="12px" height="13px" viewBox="0 0 12 13" id="SecurityCheckIcon" version="1.1" xmlns="http://www.w3.org/2000/svg" xmlns:xlink="http://www.w3.org/1999/xlink">
    <title>Combined Shape</title>
    <g id="Multi-vendor" stroke="none" stroke-width="1" fill="none" fill-rule="evenodd">
        <g id="Overview-Copy" transform="translate(-1207, -993)" fill="#3E8635">
            <g id="Details-of-dependency-com.github" transform="translate(427, 819)">
                <g id="Dependency-1" transform="translate(0, 144)">
                    <g id="Group-9" transform="translate(780.1728, 24)">
                        <g id="Group-4" transform="translate(0, 3.2)">
                            <g id="Icons/2.-Size-sm/Actions/check" transform="translate(0, 2.8)">
                                <path d="M10.5565789,0 C10.7906249,0 10.9793322,0.181542969 10.9793322,0.40625 L10.9793322,5.74082031 C10.9793322,9.75 6.24081907,13 5.49579296,13 C4.75076684,13 0,9.75 0,5.73955078 L0,0.40625 C0,0.181542969 0.188707272,0 0.422753304,0 Z M8.54277883,3.11782667 L4.7912961,6.89087353 L3.03981338,5.1293244 C2.883609,4.97220683 2.63032812,4.97220683 2.47412375,5.1293244 L1.90844938,5.69826556 C1.75224501,5.85538312 1.75224501,6.11010449 1.90844938,6.26720671 L4.50845797,8.88215991 C4.66464708,9.03927747 4.9179127,9.03927747 5.07413233,8.88217525 L9.67414282,4.25570898 C9.8303472,4.09859141 9.8303472,3.84387004 9.67414282,3.68676782 L9.10846846,3.11782667 C8.95226408,2.96072444 8.6989832,2.96072444 8.54277883,3.11782667 Z" id="Combined-Shape"></path>
                            </g>
                        </g>
                    </g>
                </g>
            </g>
        </g>
    </g>
</svg>